<?xml version="1.0" encoding="UTF-8"?>
<svg data-bbox="0 0 30 30" viewBox="0 0 30 30" xmlns="http://www.w3.org/2000/svg" data-type="shape">
    <g>
        <path d="M15.42 22.5v-6.66h2.05l.42-2.62h-2.48v-1.83c0-.75.28-1.31 1.41-1.31h1.22V7.69c-.66-.09-1.41-.19-2.06-.19-2.16 0-3.66 1.31-3.66 3.66v2.06H9.98v2.62h2.34v6.66h3.1Z"/>
        <path d="M15 1.5c7.44 0 13.5 6.06 13.5 13.5S22.44 28.5 15 28.5 1.5 22.44 1.5 15 7.56 1.5 15 1.5M15 0C6.72 0 0 6.72 0 15s6.72 15 15 15 15-6.72 15-15S23.28 0 15 0Z"/>
    </g>
</svg>
